<mxfile host="app.diagrams.net" modified="2021-06-02T15:55:11.996Z" agent="5.0 (Windows NT 10.0; Win64; x64) AppleWebKit/537.36 (KHTML, like Gecko) Chrome/91.0.4472.77 Safari/537.36 Edg/91.0.864.37" etag="0m0iripJPqhpj0nVG8WP" version="14.6.13" type="github">
  <diagram id="0Nd_s_NFrLdMoqSTcRvh" name="Page-1">
    <mxGraphModel dx="1038" dy="547" grid="1" gridSize="10" guides="1" tooltips="1" connect="1" arrows="1" fold="1" page="1" pageScale="1" pageWidth="827" pageHeight="1169" math="0" shadow="0">
      <root>
        <mxCell id="0" />
        <mxCell id="1" parent="0" />
        <mxCell id="8454GJiOE9I2ZJTOJyNd-20" style="edgeStyle=none;rounded=0;orthogonalLoop=1;jettySize=auto;html=1;" edge="1" parent="1" source="8454GJiOE9I2ZJTOJyNd-1" target="8454GJiOE9I2ZJTOJyNd-18">
          <mxGeometry relative="1" as="geometry">
            <Array as="points" />
          </mxGeometry>
        </mxCell>
        <mxCell id="8454GJiOE9I2ZJTOJyNd-21" value="uuid" style="edgeLabel;html=1;align=center;verticalAlign=middle;resizable=0;points=[];" vertex="1" connectable="0" parent="8454GJiOE9I2ZJTOJyNd-20">
          <mxGeometry x="-0.2608" y="3" relative="1" as="geometry">
            <mxPoint as="offset" />
          </mxGeometry>
        </mxCell>
        <mxCell id="8454GJiOE9I2ZJTOJyNd-48" value="1:1" style="edgeLabel;html=1;align=center;verticalAlign=middle;resizable=0;points=[];" vertex="1" connectable="0" parent="8454GJiOE9I2ZJTOJyNd-20">
          <mxGeometry x="-0.2338" y="3" relative="1" as="geometry">
            <mxPoint as="offset" />
          </mxGeometry>
        </mxCell>
        <mxCell id="8454GJiOE9I2ZJTOJyNd-24" style="edgeStyle=none;rounded=0;orthogonalLoop=1;jettySize=auto;html=1;" edge="1" parent="1" source="8454GJiOE9I2ZJTOJyNd-1" target="8454GJiOE9I2ZJTOJyNd-5">
          <mxGeometry relative="1" as="geometry">
            <mxPoint x="458.1250000000001" y="340" as="targetPoint" />
            <Array as="points">
              <mxPoint x="400" y="400" />
            </Array>
          </mxGeometry>
        </mxCell>
        <mxCell id="8454GJiOE9I2ZJTOJyNd-47" value="1:1" style="edgeLabel;html=1;align=center;verticalAlign=middle;resizable=0;points=[];" vertex="1" connectable="0" parent="8454GJiOE9I2ZJTOJyNd-24">
          <mxGeometry x="0.1364" y="-3" relative="1" as="geometry">
            <mxPoint as="offset" />
          </mxGeometry>
        </mxCell>
        <mxCell id="8454GJiOE9I2ZJTOJyNd-26" style="edgeStyle=none;rounded=0;orthogonalLoop=1;jettySize=auto;html=1;entryX=0.5;entryY=1;entryDx=0;entryDy=0;" edge="1" parent="1" source="8454GJiOE9I2ZJTOJyNd-1" target="8454GJiOE9I2ZJTOJyNd-15">
          <mxGeometry relative="1" as="geometry" />
        </mxCell>
        <mxCell id="8454GJiOE9I2ZJTOJyNd-27" style="edgeStyle=none;rounded=0;orthogonalLoop=1;jettySize=auto;html=1;entryX=0;entryY=1;entryDx=0;entryDy=0;" edge="1" parent="1" source="8454GJiOE9I2ZJTOJyNd-1" target="8454GJiOE9I2ZJTOJyNd-16">
          <mxGeometry relative="1" as="geometry" />
        </mxCell>
        <mxCell id="8454GJiOE9I2ZJTOJyNd-1" value="User" style="ellipse;whiteSpace=wrap;html=1;aspect=fixed;" vertex="1" parent="1">
          <mxGeometry x="480" y="290" width="50" height="50" as="geometry" />
        </mxCell>
        <mxCell id="8454GJiOE9I2ZJTOJyNd-86" style="edgeStyle=none;rounded=0;orthogonalLoop=1;jettySize=auto;html=1;entryX=0.764;entryY=0.982;entryDx=0;entryDy=0;entryPerimeter=0;" edge="1" parent="1" source="8454GJiOE9I2ZJTOJyNd-2" target="8454GJiOE9I2ZJTOJyNd-80">
          <mxGeometry relative="1" as="geometry" />
        </mxCell>
        <mxCell id="8454GJiOE9I2ZJTOJyNd-87" style="edgeStyle=none;rounded=0;orthogonalLoop=1;jettySize=auto;html=1;" edge="1" parent="1" source="8454GJiOE9I2ZJTOJyNd-2">
          <mxGeometry relative="1" as="geometry">
            <mxPoint x="1100" y="280" as="targetPoint" />
          </mxGeometry>
        </mxCell>
        <mxCell id="8454GJiOE9I2ZJTOJyNd-88" style="edgeStyle=none;rounded=0;orthogonalLoop=1;jettySize=auto;html=1;" edge="1" parent="1" source="8454GJiOE9I2ZJTOJyNd-2" target="8454GJiOE9I2ZJTOJyNd-83">
          <mxGeometry relative="1" as="geometry" />
        </mxCell>
        <mxCell id="8454GJiOE9I2ZJTOJyNd-89" style="edgeStyle=none;rounded=0;orthogonalLoop=1;jettySize=auto;html=1;entryX=0;entryY=0.5;entryDx=0;entryDy=0;" edge="1" parent="1" source="8454GJiOE9I2ZJTOJyNd-2" target="8454GJiOE9I2ZJTOJyNd-84">
          <mxGeometry relative="1" as="geometry" />
        </mxCell>
        <mxCell id="8454GJiOE9I2ZJTOJyNd-2" value="Report" style="ellipse;whiteSpace=wrap;html=1;aspect=fixed;" vertex="1" parent="1">
          <mxGeometry x="1040" y="330" width="50" height="50" as="geometry" />
        </mxCell>
        <mxCell id="8454GJiOE9I2ZJTOJyNd-34" value="" style="edgeStyle=none;rounded=0;orthogonalLoop=1;jettySize=auto;html=1;" edge="1" parent="1" source="8454GJiOE9I2ZJTOJyNd-3" target="8454GJiOE9I2ZJTOJyNd-33">
          <mxGeometry relative="1" as="geometry" />
        </mxCell>
        <mxCell id="8454GJiOE9I2ZJTOJyNd-36" value="" style="edgeStyle=none;rounded=0;orthogonalLoop=1;jettySize=auto;html=1;" edge="1" parent="1" source="8454GJiOE9I2ZJTOJyNd-3" target="8454GJiOE9I2ZJTOJyNd-35">
          <mxGeometry relative="1" as="geometry" />
        </mxCell>
        <mxCell id="8454GJiOE9I2ZJTOJyNd-38" value="" style="edgeStyle=none;rounded=0;orthogonalLoop=1;jettySize=auto;html=1;" edge="1" parent="1" source="8454GJiOE9I2ZJTOJyNd-3" target="8454GJiOE9I2ZJTOJyNd-37">
          <mxGeometry relative="1" as="geometry" />
        </mxCell>
        <mxCell id="8454GJiOE9I2ZJTOJyNd-40" value="" style="edgeStyle=none;rounded=0;orthogonalLoop=1;jettySize=auto;html=1;" edge="1" parent="1" source="8454GJiOE9I2ZJTOJyNd-3" target="8454GJiOE9I2ZJTOJyNd-39">
          <mxGeometry relative="1" as="geometry" />
        </mxCell>
        <mxCell id="8454GJiOE9I2ZJTOJyNd-41" value="" style="edgeStyle=none;rounded=0;orthogonalLoop=1;jettySize=auto;html=1;" edge="1" parent="1" source="8454GJiOE9I2ZJTOJyNd-3" target="8454GJiOE9I2ZJTOJyNd-39">
          <mxGeometry relative="1" as="geometry" />
        </mxCell>
        <mxCell id="8454GJiOE9I2ZJTOJyNd-42" style="edgeStyle=none;rounded=0;orthogonalLoop=1;jettySize=auto;html=1;entryX=0;entryY=1;entryDx=0;entryDy=0;" edge="1" parent="1" source="8454GJiOE9I2ZJTOJyNd-3" target="8454GJiOE9I2ZJTOJyNd-43">
          <mxGeometry relative="1" as="geometry">
            <mxPoint x="680" y="586" as="targetPoint" />
          </mxGeometry>
        </mxCell>
        <mxCell id="8454GJiOE9I2ZJTOJyNd-53" style="edgeStyle=none;rounded=0;orthogonalLoop=1;jettySize=auto;html=1;entryX=-0.007;entryY=0.787;entryDx=0;entryDy=0;entryPerimeter=0;" edge="1" parent="1" source="8454GJiOE9I2ZJTOJyNd-3" target="8454GJiOE9I2ZJTOJyNd-4">
          <mxGeometry relative="1" as="geometry" />
        </mxCell>
        <mxCell id="8454GJiOE9I2ZJTOJyNd-55" value="1:n" style="edgeLabel;html=1;align=center;verticalAlign=middle;resizable=0;points=[];" vertex="1" connectable="0" parent="8454GJiOE9I2ZJTOJyNd-53">
          <mxGeometry x="-0.2896" relative="1" as="geometry">
            <mxPoint x="10" y="-20" as="offset" />
          </mxGeometry>
        </mxCell>
        <mxCell id="8454GJiOE9I2ZJTOJyNd-3" value="Course" style="ellipse;whiteSpace=wrap;html=1;aspect=fixed;" vertex="1" parent="1">
          <mxGeometry x="570" y="745" width="50" height="50" as="geometry" />
        </mxCell>
        <mxCell id="8454GJiOE9I2ZJTOJyNd-56" style="edgeStyle=none;rounded=0;orthogonalLoop=1;jettySize=auto;html=1;entryX=0.072;entryY=0.741;entryDx=0;entryDy=0;entryPerimeter=0;" edge="1" parent="1" source="8454GJiOE9I2ZJTOJyNd-4" target="8454GJiOE9I2ZJTOJyNd-2">
          <mxGeometry relative="1" as="geometry" />
        </mxCell>
        <mxCell id="8454GJiOE9I2ZJTOJyNd-57" value="1:n" style="edgeLabel;html=1;align=center;verticalAlign=middle;resizable=0;points=[];" vertex="1" connectable="0" parent="8454GJiOE9I2ZJTOJyNd-56">
          <mxGeometry x="-0.3372" y="3" relative="1" as="geometry">
            <mxPoint x="13" y="-4" as="offset" />
          </mxGeometry>
        </mxCell>
        <mxCell id="8454GJiOE9I2ZJTOJyNd-67" style="edgeStyle=none;rounded=0;orthogonalLoop=1;jettySize=auto;html=1;entryX=1;entryY=1;entryDx=0;entryDy=0;" edge="1" parent="1" source="8454GJiOE9I2ZJTOJyNd-4" target="8454GJiOE9I2ZJTOJyNd-66">
          <mxGeometry relative="1" as="geometry" />
        </mxCell>
        <mxCell id="8454GJiOE9I2ZJTOJyNd-68" style="edgeStyle=none;rounded=0;orthogonalLoop=1;jettySize=auto;html=1;entryX=0.698;entryY=0.993;entryDx=0;entryDy=0;entryPerimeter=0;" edge="1" parent="1" source="8454GJiOE9I2ZJTOJyNd-4" target="8454GJiOE9I2ZJTOJyNd-65">
          <mxGeometry relative="1" as="geometry" />
        </mxCell>
        <mxCell id="8454GJiOE9I2ZJTOJyNd-69" style="edgeStyle=none;rounded=0;orthogonalLoop=1;jettySize=auto;html=1;entryX=0.313;entryY=0.967;entryDx=0;entryDy=0;entryPerimeter=0;" edge="1" parent="1" source="8454GJiOE9I2ZJTOJyNd-4" target="8454GJiOE9I2ZJTOJyNd-60">
          <mxGeometry relative="1" as="geometry" />
        </mxCell>
        <mxCell id="8454GJiOE9I2ZJTOJyNd-70" style="edgeStyle=none;rounded=0;orthogonalLoop=1;jettySize=auto;html=1;entryX=0;entryY=0;entryDx=0;entryDy=0;" edge="1" parent="1" source="8454GJiOE9I2ZJTOJyNd-4" target="8454GJiOE9I2ZJTOJyNd-61">
          <mxGeometry relative="1" as="geometry" />
        </mxCell>
        <mxCell id="8454GJiOE9I2ZJTOJyNd-71" style="edgeStyle=none;rounded=0;orthogonalLoop=1;jettySize=auto;html=1;entryX=0.5;entryY=0;entryDx=0;entryDy=0;" edge="1" parent="1" source="8454GJiOE9I2ZJTOJyNd-4" target="8454GJiOE9I2ZJTOJyNd-62">
          <mxGeometry relative="1" as="geometry" />
        </mxCell>
        <mxCell id="8454GJiOE9I2ZJTOJyNd-72" style="edgeStyle=none;rounded=0;orthogonalLoop=1;jettySize=auto;html=1;entryX=1;entryY=0;entryDx=0;entryDy=0;" edge="1" parent="1" source="8454GJiOE9I2ZJTOJyNd-4" target="8454GJiOE9I2ZJTOJyNd-63">
          <mxGeometry relative="1" as="geometry" />
        </mxCell>
        <mxCell id="8454GJiOE9I2ZJTOJyNd-73" style="edgeStyle=none;rounded=0;orthogonalLoop=1;jettySize=auto;html=1;" edge="1" parent="1" source="8454GJiOE9I2ZJTOJyNd-4" target="8454GJiOE9I2ZJTOJyNd-64">
          <mxGeometry relative="1" as="geometry" />
        </mxCell>
        <mxCell id="8454GJiOE9I2ZJTOJyNd-75" value="1:1" style="edgeLabel;html=1;align=center;verticalAlign=middle;resizable=0;points=[];" vertex="1" connectable="0" parent="8454GJiOE9I2ZJTOJyNd-73">
          <mxGeometry x="-0.1281" y="3" relative="1" as="geometry">
            <mxPoint x="16" y="1" as="offset" />
          </mxGeometry>
        </mxCell>
        <mxCell id="8454GJiOE9I2ZJTOJyNd-4" value="Test" style="ellipse;whiteSpace=wrap;html=1;aspect=fixed;" vertex="1" parent="1">
          <mxGeometry x="830" y="595" width="50" height="50" as="geometry" />
        </mxCell>
        <mxCell id="8454GJiOE9I2ZJTOJyNd-11" style="edgeStyle=none;rounded=0;orthogonalLoop=1;jettySize=auto;html=1;entryX=0.5;entryY=0;entryDx=0;entryDy=0;" edge="1" parent="1" source="8454GJiOE9I2ZJTOJyNd-5" target="8454GJiOE9I2ZJTOJyNd-10">
          <mxGeometry relative="1" as="geometry" />
        </mxCell>
        <mxCell id="8454GJiOE9I2ZJTOJyNd-12" style="edgeStyle=none;rounded=0;orthogonalLoop=1;jettySize=auto;html=1;entryX=0;entryY=0;entryDx=0;entryDy=0;" edge="1" parent="1" source="8454GJiOE9I2ZJTOJyNd-5" target="8454GJiOE9I2ZJTOJyNd-8">
          <mxGeometry relative="1" as="geometry" />
        </mxCell>
        <mxCell id="8454GJiOE9I2ZJTOJyNd-13" style="edgeStyle=none;rounded=0;orthogonalLoop=1;jettySize=auto;html=1;exitX=1;exitY=1;exitDx=0;exitDy=0;entryX=0;entryY=0;entryDx=0;entryDy=0;" edge="1" parent="1" source="8454GJiOE9I2ZJTOJyNd-5" target="8454GJiOE9I2ZJTOJyNd-9">
          <mxGeometry relative="1" as="geometry" />
        </mxCell>
        <mxCell id="8454GJiOE9I2ZJTOJyNd-5" value="Role" style="ellipse;whiteSpace=wrap;html=1;aspect=fixed;" vertex="1" parent="1">
          <mxGeometry x="350" y="390" width="50" height="50" as="geometry" />
        </mxCell>
        <mxCell id="8454GJiOE9I2ZJTOJyNd-30" style="edgeStyle=none;rounded=0;orthogonalLoop=1;jettySize=auto;html=1;entryX=1.058;entryY=0.703;entryDx=0;entryDy=0;entryPerimeter=0;" edge="1" parent="1" source="8454GJiOE9I2ZJTOJyNd-7" target="8454GJiOE9I2ZJTOJyNd-28">
          <mxGeometry relative="1" as="geometry" />
        </mxCell>
        <mxCell id="8454GJiOE9I2ZJTOJyNd-31" style="edgeStyle=none;rounded=0;orthogonalLoop=1;jettySize=auto;html=1;entryX=1;entryY=0;entryDx=0;entryDy=0;" edge="1" parent="1" source="8454GJiOE9I2ZJTOJyNd-7" target="8454GJiOE9I2ZJTOJyNd-29">
          <mxGeometry relative="1" as="geometry" />
        </mxCell>
        <mxCell id="8454GJiOE9I2ZJTOJyNd-7" value="Template" style="ellipse;whiteSpace=wrap;html=1;aspect=fixed;" vertex="1" parent="1">
          <mxGeometry x="410" y="590" width="60" height="60" as="geometry" />
        </mxCell>
        <mxCell id="8454GJiOE9I2ZJTOJyNd-32" style="edgeStyle=none;rounded=0;orthogonalLoop=1;jettySize=auto;html=1;entryX=0.415;entryY=0.032;entryDx=0;entryDy=0;entryPerimeter=0;" edge="1" parent="1" source="8454GJiOE9I2ZJTOJyNd-8" target="8454GJiOE9I2ZJTOJyNd-7">
          <mxGeometry relative="1" as="geometry" />
        </mxCell>
        <mxCell id="8454GJiOE9I2ZJTOJyNd-44" value="1:n" style="edgeLabel;html=1;align=center;verticalAlign=middle;resizable=0;points=[];" vertex="1" connectable="0" parent="8454GJiOE9I2ZJTOJyNd-32">
          <mxGeometry x="-0.5154" y="-1" relative="1" as="geometry">
            <mxPoint x="1" y="10" as="offset" />
          </mxGeometry>
        </mxCell>
        <mxCell id="8454GJiOE9I2ZJTOJyNd-51" style="edgeStyle=none;rounded=0;orthogonalLoop=1;jettySize=auto;html=1;" edge="1" parent="1" source="8454GJiOE9I2ZJTOJyNd-8" target="8454GJiOE9I2ZJTOJyNd-3">
          <mxGeometry relative="1" as="geometry" />
        </mxCell>
        <mxCell id="8454GJiOE9I2ZJTOJyNd-52" value="1:n" style="edgeLabel;html=1;align=center;verticalAlign=middle;resizable=0;points=[];" vertex="1" connectable="0" parent="8454GJiOE9I2ZJTOJyNd-51">
          <mxGeometry x="-0.2707" relative="1" as="geometry">
            <mxPoint as="offset" />
          </mxGeometry>
        </mxCell>
        <mxCell id="8454GJiOE9I2ZJTOJyNd-8" value="Teacher" style="ellipse;whiteSpace=wrap;html=1;aspect=fixed;" vertex="1" parent="1">
          <mxGeometry x="410" y="480" width="50" height="50" as="geometry" />
        </mxCell>
        <mxCell id="8454GJiOE9I2ZJTOJyNd-49" style="edgeStyle=none;rounded=0;orthogonalLoop=1;jettySize=auto;html=1;entryX=0.15;entryY=0.05;entryDx=0;entryDy=0;entryPerimeter=0;" edge="1" parent="1" source="8454GJiOE9I2ZJTOJyNd-9" target="8454GJiOE9I2ZJTOJyNd-3">
          <mxGeometry relative="1" as="geometry" />
        </mxCell>
        <mxCell id="8454GJiOE9I2ZJTOJyNd-50" value="n:1" style="edgeLabel;html=1;align=center;verticalAlign=middle;resizable=0;points=[];" vertex="1" connectable="0" parent="8454GJiOE9I2ZJTOJyNd-49">
          <mxGeometry x="-0.3347" y="3" relative="1" as="geometry">
            <mxPoint as="offset" />
          </mxGeometry>
        </mxCell>
        <mxCell id="8454GJiOE9I2ZJTOJyNd-58" style="edgeStyle=none;rounded=0;orthogonalLoop=1;jettySize=auto;html=1;entryX=0;entryY=0.5;entryDx=0;entryDy=0;" edge="1" parent="1" source="8454GJiOE9I2ZJTOJyNd-9" target="8454GJiOE9I2ZJTOJyNd-2">
          <mxGeometry relative="1" as="geometry" />
        </mxCell>
        <mxCell id="8454GJiOE9I2ZJTOJyNd-59" value="1:n" style="edgeLabel;html=1;align=center;verticalAlign=middle;resizable=0;points=[];" vertex="1" connectable="0" parent="8454GJiOE9I2ZJTOJyNd-58">
          <mxGeometry x="-0.1285" y="1" relative="1" as="geometry">
            <mxPoint as="offset" />
          </mxGeometry>
        </mxCell>
        <mxCell id="8454GJiOE9I2ZJTOJyNd-9" value="Student" style="ellipse;whiteSpace=wrap;html=1;aspect=fixed;" vertex="1" parent="1">
          <mxGeometry x="460" y="440" width="50" height="50" as="geometry" />
        </mxCell>
        <mxCell id="8454GJiOE9I2ZJTOJyNd-10" value="Admin" style="ellipse;whiteSpace=wrap;html=1;aspect=fixed;" vertex="1" parent="1">
          <mxGeometry x="350" y="480" width="50" height="50" as="geometry" />
        </mxCell>
        <mxCell id="8454GJiOE9I2ZJTOJyNd-14" style="edgeStyle=none;rounded=0;orthogonalLoop=1;jettySize=auto;html=1;exitX=-0.017;exitY=0.301;exitDx=0;exitDy=0;entryX=0;entryY=0.5;entryDx=0;entryDy=0;exitPerimeter=0;" edge="1" parent="1" source="8454GJiOE9I2ZJTOJyNd-9" target="8454GJiOE9I2ZJTOJyNd-9">
          <mxGeometry relative="1" as="geometry" />
        </mxCell>
        <mxCell id="8454GJiOE9I2ZJTOJyNd-15" value="username" style="ellipse;whiteSpace=wrap;html=1;aspect=fixed;" vertex="1" parent="1">
          <mxGeometry x="430" y="230" width="50" height="50" as="geometry" />
        </mxCell>
        <mxCell id="8454GJiOE9I2ZJTOJyNd-16" value="password" style="ellipse;whiteSpace=wrap;html=1;aspect=fixed;" vertex="1" parent="1">
          <mxGeometry x="510" y="230" width="50" height="50" as="geometry" />
        </mxCell>
        <mxCell id="8454GJiOE9I2ZJTOJyNd-18" value="UserInfo" style="ellipse;whiteSpace=wrap;html=1;aspect=fixed;" vertex="1" parent="1">
          <mxGeometry x="620" y="250" width="80" height="80" as="geometry" />
        </mxCell>
        <mxCell id="8454GJiOE9I2ZJTOJyNd-28" value="file" style="ellipse;whiteSpace=wrap;html=1;aspect=fixed;" vertex="1" parent="1">
          <mxGeometry x="340" y="570" width="50" height="50" as="geometry" />
        </mxCell>
        <mxCell id="8454GJiOE9I2ZJTOJyNd-29" value="name" style="ellipse;whiteSpace=wrap;html=1;aspect=fixed;" vertex="1" parent="1">
          <mxGeometry x="340" y="635" width="50" height="50" as="geometry" />
        </mxCell>
        <mxCell id="8454GJiOE9I2ZJTOJyNd-33" value="code" style="ellipse;whiteSpace=wrap;html=1;aspect=fixed;" vertex="1" parent="1">
          <mxGeometry x="500" y="850" width="30" height="30" as="geometry" />
        </mxCell>
        <mxCell id="8454GJiOE9I2ZJTOJyNd-35" value="name" style="ellipse;whiteSpace=wrap;html=1;aspect=fixed;" vertex="1" parent="1">
          <mxGeometry x="460" y="750" width="40" height="40" as="geometry" />
        </mxCell>
        <mxCell id="8454GJiOE9I2ZJTOJyNd-37" value="grade" style="ellipse;whiteSpace=wrap;html=1;aspect=fixed;" vertex="1" parent="1">
          <mxGeometry x="465" y="705" width="40" height="40" as="geometry" />
        </mxCell>
        <mxCell id="8454GJiOE9I2ZJTOJyNd-39" value="major" style="ellipse;whiteSpace=wrap;html=1;aspect=fixed;" vertex="1" parent="1">
          <mxGeometry x="465" y="795" width="40" height="40" as="geometry" />
        </mxCell>
        <mxCell id="8454GJiOE9I2ZJTOJyNd-43" value="createAt" style="ellipse;whiteSpace=wrap;html=1;aspect=fixed;" vertex="1" parent="1">
          <mxGeometry x="550" y="860" width="50" height="50" as="geometry" />
        </mxCell>
        <mxCell id="8454GJiOE9I2ZJTOJyNd-60" value="require" style="ellipse;whiteSpace=wrap;html=1;aspect=fixed;" vertex="1" parent="1">
          <mxGeometry x="935" y="550" width="50" height="50" as="geometry" />
        </mxCell>
        <mxCell id="8454GJiOE9I2ZJTOJyNd-61" value="tempId" style="ellipse;whiteSpace=wrap;html=1;aspect=fixed;" vertex="1" parent="1">
          <mxGeometry x="910" y="695" width="50" height="50" as="geometry" />
        </mxCell>
        <mxCell id="8454GJiOE9I2ZJTOJyNd-62" value="tagId" style="ellipse;whiteSpace=wrap;html=1;aspect=fixed;" vertex="1" parent="1">
          <mxGeometry x="840" y="710" width="50" height="50" as="geometry" />
        </mxCell>
        <mxCell id="8454GJiOE9I2ZJTOJyNd-63" value="name" style="ellipse;whiteSpace=wrap;html=1;aspect=fixed;" vertex="1" parent="1">
          <mxGeometry x="770" y="695" width="50" height="50" as="geometry" />
        </mxCell>
        <mxCell id="8454GJiOE9I2ZJTOJyNd-78" style="edgeStyle=none;rounded=0;orthogonalLoop=1;jettySize=auto;html=1;entryX=0.682;entryY=0.067;entryDx=0;entryDy=0;entryPerimeter=0;" edge="1" parent="1" source="8454GJiOE9I2ZJTOJyNd-64" target="8454GJiOE9I2ZJTOJyNd-77">
          <mxGeometry relative="1" as="geometry" />
        </mxCell>
        <mxCell id="8454GJiOE9I2ZJTOJyNd-79" style="edgeStyle=none;rounded=0;orthogonalLoop=1;jettySize=auto;html=1;" edge="1" parent="1" source="8454GJiOE9I2ZJTOJyNd-64" target="8454GJiOE9I2ZJTOJyNd-76">
          <mxGeometry relative="1" as="geometry">
            <mxPoint x="1090" y="640.0000000000001" as="targetPoint" />
            <Array as="points" />
          </mxGeometry>
        </mxCell>
        <mxCell id="8454GJiOE9I2ZJTOJyNd-64" value="SelfTag" style="ellipse;whiteSpace=wrap;html=1;aspect=fixed;" vertex="1" parent="1">
          <mxGeometry x="1060" y="670" width="50" height="50" as="geometry" />
        </mxCell>
        <mxCell id="8454GJiOE9I2ZJTOJyNd-65" value="endTime" style="ellipse;whiteSpace=wrap;html=1;aspect=fixed;" vertex="1" parent="1">
          <mxGeometry x="810" y="500" width="50" height="50" as="geometry" />
        </mxCell>
        <mxCell id="8454GJiOE9I2ZJTOJyNd-66" value="format" style="ellipse;whiteSpace=wrap;html=1;aspect=fixed;" vertex="1" parent="1">
          <mxGeometry x="760" y="560" width="50" height="50" as="geometry" />
        </mxCell>
        <mxCell id="8454GJiOE9I2ZJTOJyNd-76" value="name" style="ellipse;whiteSpace=wrap;html=1;aspect=fixed;" vertex="1" parent="1">
          <mxGeometry x="1170" y="635" width="45" height="45" as="geometry" />
        </mxCell>
        <mxCell id="8454GJiOE9I2ZJTOJyNd-77" value="content" style="ellipse;whiteSpace=wrap;html=1;aspect=fixed;" vertex="1" parent="1">
          <mxGeometry x="1040" y="747.5" width="42.5" height="42.5" as="geometry" />
        </mxCell>
        <mxCell id="8454GJiOE9I2ZJTOJyNd-80" value="userId" style="ellipse;whiteSpace=wrap;html=1;aspect=fixed;" vertex="1" parent="1">
          <mxGeometry x="975" y="215" width="65" height="65" as="geometry" />
        </mxCell>
        <mxCell id="8454GJiOE9I2ZJTOJyNd-82" value="testId" style="ellipse;whiteSpace=wrap;html=1;aspect=fixed;" vertex="1" parent="1">
          <mxGeometry x="1080" y="210" width="65" height="65" as="geometry" />
        </mxCell>
        <mxCell id="8454GJiOE9I2ZJTOJyNd-83" value="name" style="ellipse;whiteSpace=wrap;html=1;aspect=fixed;" vertex="1" parent="1">
          <mxGeometry x="1170" y="282.5" width="65" height="65" as="geometry" />
        </mxCell>
        <mxCell id="8454GJiOE9I2ZJTOJyNd-84" value="file" style="ellipse;whiteSpace=wrap;html=1;aspect=fixed;" vertex="1" parent="1">
          <mxGeometry x="1170" y="360" width="65" height="65" as="geometry" />
        </mxCell>
        <mxCell id="8454GJiOE9I2ZJTOJyNd-90" value="UserReport&lt;br&gt;" style="text;html=1;align=center;verticalAlign=middle;resizable=0;points=[];autosize=1;strokeColor=none;" vertex="1" parent="1">
          <mxGeometry x="550" y="40" width="80" height="20" as="geometry" />
        </mxCell>
        <mxCell id="8454GJiOE9I2ZJTOJyNd-91" value="UserCourse&lt;br&gt;" style="text;html=1;align=center;verticalAlign=middle;resizable=0;points=[];autosize=1;strokeColor=none;" vertex="1" parent="1">
          <mxGeometry x="550" y="70" width="80" height="20" as="geometry" />
        </mxCell>
        <mxCell id="8454GJiOE9I2ZJTOJyNd-92" value="CourseTest&lt;br&gt;" style="text;html=1;align=center;verticalAlign=middle;resizable=0;points=[];autosize=1;strokeColor=none;" vertex="1" parent="1">
          <mxGeometry x="550" y="100" width="80" height="20" as="geometry" />
        </mxCell>
      </root>
    </mxGraphModel>
  </diagram>
</mxfile>
